<?xml version="1.0" encoding="utf-8"?>
<!-- Generator: Adobe Illustrator 16.0.3, SVG Export Plug-In . SVG Version: 6.00 Build 0)  -->
<!DOCTYPE svg PUBLIC "-//W3C//DTD SVG 1.1//EN" "http://www.w3.org/Graphics/SVG/1.1/DTD/svg11.dtd">
<svg version="1.1" id="Capa_1" xmlns="http://www.w3.org/2000/svg" xmlns:xlink="http://www.w3.org/1999/xlink" x="0px" y="0px"
	 width="1920px" height="953.325px" viewBox="0 0 1920 953.325" enable-background="new 0 0 1920 953.325" xml:space="preserve">
<g>
	<rect x="1.25" y="821.955" fill="#F4F4F4" width="1920" height="4.101"/>
	<rect x="1.25" y="725.95" fill="#F4F4F4" width="1920" height="4.101"/>
	<rect x="-1" y="646.904" fill="#F4F4F4" width="1920" height="4.101"/>
	<rect x="-1" y="587.401" fill="#F4F4F4" width="1920" height="4.101"/>
	<rect x="0.75" y="545.348" fill="#F4F4F4" width="1920" height="4.101"/>
	<rect x="0.75" y="504.918" fill="#F4F4F4" width="1920" height="4.1"/>
	<rect x="0.75" y="475.521" fill="#F4F4F4" width="1920" height="4.101"/>
	<rect x="0.75" y="443.812" fill="#F4F4F4" width="1920" height="4.1"/>
	<rect x="0.75" y="415.727" fill="#F4F4F4" width="1920" height="4.101"/>
	<rect x="0.75" y="391.019" fill="#F4F4F4" width="1920" height="4.101"/>
	<rect x="0.75" y="370.622" fill="#F4F4F4" width="1920" height="4.101"/>
	<rect x="0.75" y="351.913" fill="#F4F4F4" width="1920" height="4.101"/>
	<rect x="0.75" y="334.291" fill="#F4F4F4" width="1920" height="4.101"/>
	<rect x="0.75" y="318.581" fill="#F4F4F4" width="1920" height="4.101"/>
	<rect x="0.75" y="303.189" fill="#F4F4F4" width="1920" height="4.101"/>
	<rect x="0.75" y="286.48" fill="#F4F4F4" width="1920" height="4.101"/>
	<rect x="-0.25" y="274.224" fill="#F4F4F4" width="1920" height="4.101"/>
	<rect x="0.75" y="263.375" fill="#F4F4F4" width="1920" height="4.101"/>
	<rect x="-0.25" y="253.279" fill="#F4F4F4" width="1920" height="4.101"/>
	<rect x="0.75" y="244.43" fill="#F4F4F4" width="1920" height="4.101"/>
	<rect x="0.25" y="234.173" fill="#F4F4F4" width="1920" height="4.101"/>
	<rect x="1.25" y="223.325" fill="#F4F4F4" width="1920" height="4.1"/>
	<rect x="0.25" y="213.228" fill="#F4F4F4" width="1920" height="4.101"/>
	<rect x="1.25" y="204.379" fill="#F4F4F4" width="1920" height="4.1"/>
	<rect y="195.726" fill="#F4F4F4" width="1920" height="4.101"/>
	<rect x="-1" y="185.629" fill="#F4F4F4" width="1920" height="4.101"/>
	<rect y="176.78" fill="#F4F4F4" width="1920" height="4.101"/>
	<rect x="-0.5" y="166.524" fill="#F4F4F4" width="1920" height="4.101"/>
	<rect x="0.5" y="155.675" fill="#F4F4F4" width="1920" height="4.1"/>
	<rect x="-0.5" y="145.579" fill="#F4F4F4" width="1920" height="4.101"/>
	<rect x="0.5" y="136.73" fill="#F4F4F4" width="1920" height="4.1"/>
	<rect x="0.75" y="127.136" fill="#F4F4F4" width="1920" height="4.101"/>
	<rect x="-0.25" y="117.04" fill="#F4F4F4" width="1920" height="4.101"/>
	<rect x="0.75" y="108.191" fill="#F4F4F4" width="1920" height="4.101"/>
	<rect x="0.25" y="97.935" fill="#F4F4F4" width="1920" height="4.101"/>
	<rect x="1.25" y="87.086" fill="#F4F4F4" width="1920" height="4.1"/>
	<rect x="0.25" y="76.989" fill="#F4F4F4" width="1920" height="4.101"/>
	<rect x="1.25" y="68.141" fill="#F4F4F4" width="1920" height="4.1"/>
	<rect x="0.25" y="58.996" fill="#F4F4F4" width="1920" height="4.101"/>
	<rect x="-0.75" y="48.899" fill="#F4F4F4" width="1920" height="4.101"/>
	<rect x="0.25" y="40.05" fill="#F4F4F4" width="1920" height="4.101"/>
	<rect x="-0.25" y="29.794" fill="#F4F4F4" width="1920" height="4.101"/>
	<rect x="0.75" y="18.945" fill="#F4F4F4" width="1920" height="4.1"/>
	<rect x="-0.25" y="8.849" fill="#F4F4F4" width="1920" height="4.101"/>
	<rect x="0.75" fill="#F4F4F4" width="1920" height="4.1"/>
</g>
</svg>
